<svg version="1.1" width="89" height="27" id="Layer_1" xmlns="http://www.w3.org/2000/svg" xmlns:xlink="http://www.w3.org/1999/xlink" x="0px" y="0px"
	 width="100%" viewBox="0 0 500 500" enable-background="new 0 0 500 500" xml:space="preserve">
<path fill="#FFFFFF" opacity="1.000000" stroke="none" 
	d="
M271.000000,501.000000 
	C180.666687,501.000000 90.833374,501.000000 1.000048,501.000000 
	C1.000032,334.333405 1.000032,167.666794 1.000016,1.000138 
	C167.666565,1.000092 334.333130,1.000092 500.999756,1.000046 
	C500.999847,167.666519 500.999847,334.333038 500.999939,500.999786 
	C424.500000,501.000000 348.000000,501.000000 271.000000,501.000000 
M160.837540,243.105270 
	C161.156006,246.276794 161.331314,249.471512 161.839737,252.612274 
	C162.223618,254.983536 162.331238,258.347382 163.836243,259.343018 
	C165.612656,260.518158 168.761459,259.618774 171.315292,259.618774 
	C171.322083,259.158783 171.328873,258.698792 171.335663,258.238800 
	C170.012756,258.081848 168.689865,257.924866 166.981735,257.722168 
	C166.981735,251.888718 167.017609,246.263748 166.973572,240.639389 
	C166.902390,231.547501 164.186691,229.189285 154.265778,230.090103 
	C153.173752,230.461273 152.011917,230.699539 151.003311,231.229492 
	C148.377899,232.608963 145.898483,234.389847 147.545670,237.758514 
	C148.002808,238.693344 150.218719,238.768188 151.627701,239.237610 
	C152.121933,237.080780 152.616180,234.923950 153.110428,232.767120 
	C152.695496,232.620865 152.280579,232.474609 151.865662,232.328354 
	C152.902115,231.837616 153.938553,231.346863 155.778564,230.984177 
	C162.016312,231.890869 163.746887,236.732224 159.630371,243.204834 
	C159.637085,243.563080 159.643784,243.921310 159.650482,244.279556 
	C159.779160,243.831955 159.907837,243.384354 160.837540,243.105270 
M220.754395,232.097107 
	C221.536896,233.770737 222.893021,235.410492 222.994186,237.124344 
	C223.296127,242.238846 223.355453,247.399765 223.000198,252.507141 
	C222.828766,254.971405 221.515320,257.356232 220.723053,259.764709 
	C223.525421,259.764709 227.515320,259.764709 231.019150,259.764709 
	C230.204208,258.047577 228.668854,256.290039 228.659225,254.524170 
	C228.626038,248.424515 229.124634,242.321991 229.902512,235.813202 
	C231.605591,234.444839 233.308670,233.076477 235.830521,231.788757 
	C239.981644,231.537766 240.877274,234.263123 240.941544,237.554016 
	C241.032379,242.206039 241.239655,246.881287 240.883713,251.507111 
	C240.663559,254.368286 239.490479,257.156158 238.761856,259.913788 
	C239.982040,259.913788 241.971756,259.913788 243.961487,259.913788 
	C245.949036,259.913788 247.936600,259.913788 248.901001,259.913788 
	C247.920685,257.460175 246.497345,255.344559 246.308548,253.123962 
	C245.915695,248.503021 246.263092,243.824356 246.149399,239.173264 
	C245.955399,231.236679 243.138474,229.044952 234.354797,230.395355 
	C232.559174,231.531693 230.763550,232.668030 228.933426,233.826187 
	C228.575684,232.906494 228.338501,232.296707 228.155182,230.950241 
	C225.436142,230.954163 222.717102,230.958084 219.484970,230.955353 
	C219.659195,231.239853 219.833420,231.524368 220.754395,232.097107 
M283.369507,259.982117 
	C285.351013,259.982117 287.332489,259.982117 289.313995,259.982117 
	C289.444916,259.557739 289.575836,259.133362 289.706787,258.708984 
	C284.274323,258.615723 283.817871,255.355347 283.921753,251.270844 
	C284.127411,243.182144 283.950745,235.084366 283.994568,226.990692 
	C284.026093,221.167374 287.094360,218.978699 292.241272,221.753036 
	C294.364929,222.897736 296.448822,225.767761 296.846100,228.138702 
	C297.841492,234.079636 297.748291,240.134415 289.231476,242.903412 
	C297.112701,243.196320 301.016632,240.556915 302.862488,234.710663 
	C304.463959,229.638458 302.815491,223.875992 298.437927,221.592468 
	C290.759888,217.587265 282.583405,219.595230 275.603180,219.499359 
	C276.578735,221.941620 278.000580,223.913223 278.059967,225.925049 
	C278.315491,234.579865 278.362488,243.253265 278.057037,251.904770 
	C277.963715,254.548294 276.501587,257.143494 275.596039,259.981140 
	C277.233154,259.981140 279.840454,259.981140 283.369507,259.982117 
M122.993645,253.991211 
	C121.612518,255.999695 120.231392,258.008179 119.041855,259.738037 
	C123.114746,259.738037 128.251129,259.738037 133.204681,259.738037 
	C131.725754,258.334259 128.966095,256.947571 128.919205,255.474518 
	C128.556946,244.095551 128.719604,232.699875 128.719604,221.464096 
	C137.510056,219.262848 139.769135,224.544144 141.420380,231.034348 
	C141.420380,227.351776 141.420380,223.669220 141.420380,219.744781 
	C130.914124,219.744781 120.517136,219.744781 110.144424,219.744781 
	C110.144424,223.652191 110.144424,227.332169 110.144424,231.828339 
	C115.205780,220.597656 115.205780,220.597656 123.010582,221.336609 
	C123.010582,231.879257 123.010582,242.479507 122.993645,253.991211 
M338.967468,244.564819 
	C339.045044,255.736954 343.894287,261.455383 352.851654,260.937653 
	C360.897217,260.472565 365.154266,254.587524 364.972687,244.181244 
	C364.818329,235.335526 359.805908,229.565704 352.141632,229.411362 
	C344.335327,229.254166 339.433868,234.557449 338.967468,244.564819 
M314.293365,259.451385 
	C322.074890,262.532806 329.179199,260.366577 332.193298,253.993408 
	C336.015533,245.911453 333.638916,234.570129 327.051758,231.301895 
	C324.678619,230.124466 321.643463,229.745117 318.948120,229.862991 
	C313.022797,230.122116 309.529724,233.905777 308.258270,239.362030 
	C306.533569,246.763641 306.670227,253.919083 314.293365,259.451385 
M197.096344,243.467056 
	C202.893051,242.941422 208.689743,242.415787 214.706284,241.870209 
	C214.686188,236.795242 213.432495,232.558121 208.364334,230.484695 
	C203.689911,228.572327 198.058441,230.071320 194.760254,233.952545 
	C190.092468,239.445480 189.676300,250.190414 193.980820,255.936615 
	C197.078949,260.072296 201.391769,261.543457 206.323502,260.691803 
	C210.409592,259.986176 213.246124,257.514740 214.326233,253.381531 
	C213.502151,253.600449 212.994492,254.142014 212.493317,254.689484 
	C207.229950,260.439392 200.317673,259.138489 197.818222,251.737366 
	C197.045410,249.448990 197.191269,246.850388 197.096344,243.467056 
M373.072998,251.291870 
	C372.299622,254.079437 371.526215,256.867004 370.770081,259.592407 
	C373.871826,259.592407 378.122864,259.592407 381.323883,259.592407 
	C380.470428,257.143860 379.007141,254.836212 378.962585,252.501465 
	C378.728455,240.232376 378.852997,227.956436 378.852997,215.302551 
	C375.277313,215.558929 372.284973,215.773483 369.292633,215.988022 
	C373.448547,218.124741 373.154053,221.723282 373.106812,225.377197 
	C372.999298,233.696884 373.073151,242.018921 373.072998,251.291870 
M177.468597,247.450867 
	C176.918549,251.747986 179.506439,256.922607 173.403427,259.647522 
	C178.171936,259.647522 182.333008,259.647522 185.328201,259.647522 
	C184.506638,257.324585 183.055618,255.045792 182.993729,252.729858 
	C182.731628,242.919861 182.882294,233.098846 182.882126,223.281845 
	C182.882080,220.714432 182.882111,218.147018 182.882111,215.544022 
	C179.286514,215.773560 176.488907,215.952148 175.012344,216.046402 
	C175.818741,218.661392 177.233917,221.306061 177.352585,224.007660 
	C177.680832,231.480820 177.468079,238.977768 177.468597,247.450867 
M253.358276,231.358322 
	C254.594559,232.126709 256.421082,232.628830 256.918152,233.730713 
	C257.543457,235.116867 257.071411,236.993652 257.090393,238.658554 
	C257.149170,243.817352 257.005463,248.990387 257.354553,254.129761 
	C257.585815,257.533997 259.482758,260.135498 263.130188,260.733185 
	C265.978180,261.199890 268.666138,260.931427 270.167969,257.516327 
	C263.562622,259.315765 262.518005,258.493530 262.459351,251.680923 
	C262.420654,247.185410 262.448914,242.689301 262.451050,238.193466 
	C262.454163,231.652283 262.455841,231.656464 269.179321,231.371078 
	C269.329926,231.364685 269.463593,230.959717 269.607422,230.733856 
	C267.360382,230.562500 265.113373,230.391129 262.742249,230.210312 
	C262.530518,226.990128 262.350067,224.245758 262.144897,221.125519 
	C260.235535,221.574387 258.718018,221.931122 256.956451,222.345230 
	C256.956451,225.110779 256.956451,227.563660 256.956451,229.998413 
	C255.399002,230.379211 254.160278,230.682068 253.358276,231.358322 
M387.300537,261.222504 
	C392.711273,261.864380 396.080719,259.188049 394.499695,255.159332 
	C393.837341,253.471558 391.708649,251.497665 390.053711,251.304199 
	C388.410980,251.112152 385.275238,252.751068 385.027985,254.021698 
	C384.615082,256.143188 385.981262,258.610931 387.300537,261.222504 
M150.928680,252.627350 
	C152.337234,250.103455 153.745773,247.579544 155.228546,244.922653 
	C151.036484,245.465881 146.869324,246.838684 146.173599,251.548065 
	C145.818893,253.949051 147.233932,257.621796 149.119370,259.106415 
	C151.940933,261.328156 155.779938,261.408844 158.718826,257.968842 
	C155.119019,257.950165 151.248627,258.677643 150.928680,252.627350 
M157.842728,244.044983 
	C157.587296,244.197296 157.201584,244.299667 157.117950,244.517838 
	C157.052063,244.689713 157.358383,245.004303 157.499359,245.255493 
	C157.640778,245.003983 157.782196,244.752472 157.842728,244.044983 
z"/>
<path fill="#79CCFC" opacity="1.000000" stroke="none" 
	d="
M282.908630,259.981628 
	C279.840454,259.981140 277.233154,259.981140 275.596039,259.981140 
	C276.501587,257.143494 277.963715,254.548294 278.057037,251.904770 
	C278.362488,243.253265 278.315491,234.579865 278.059967,225.925049 
	C278.000580,223.913223 276.578735,221.941620 275.603180,219.499359 
	C282.583405,219.595230 290.759888,217.587265 298.437927,221.592468 
	C302.815491,223.875992 304.463959,229.638458 302.862488,234.710663 
	C301.016632,240.556915 297.112701,243.196320 289.231476,242.903412 
	C297.748291,240.134415 297.841492,234.079636 296.846100,228.138702 
	C296.448822,225.767761 294.364929,222.897736 292.241272,221.753036 
	C287.094360,218.978699 284.026093,221.167374 283.994568,226.990692 
	C283.950745,235.084366 284.127411,243.182144 283.921753,251.270844 
	C283.817871,255.355347 284.274323,258.615723 289.706787,258.708984 
	C289.575836,259.133362 289.444916,259.557739 289.313995,259.982117 
	C287.332489,259.982117 285.351013,259.982117 282.908630,259.981628 
z"/>
<path fill="#6B6C6F" opacity="1.000000" stroke="none" 
	d="
M123.002113,253.535492 
	C123.010582,242.479507 123.010582,231.879257 123.010582,221.336609 
	C115.205780,220.597656 115.205780,220.597656 110.144424,231.828339 
	C110.144424,227.332169 110.144424,223.652191 110.144424,219.744781 
	C120.517136,219.744781 130.914124,219.744781 141.420380,219.744781 
	C141.420380,223.669220 141.420380,227.351776 141.420380,231.034348 
	C139.769135,224.544144 137.510056,219.262848 128.719604,221.464096 
	C128.719604,232.699875 128.556946,244.095551 128.919205,255.474518 
	C128.966095,256.947571 131.725754,258.334259 133.204681,259.738037 
	C128.251129,259.738037 123.114746,259.738037 119.041855,259.738037 
	C120.231392,258.008179 121.612518,255.999695 123.002113,253.535492 
z"/>
<path fill="#79CCFC" opacity="1.000000" stroke="none" 
	d="
M338.969177,244.113327 
	C339.433868,234.557449 344.335327,229.254166 352.141632,229.411362 
	C359.805908,229.565704 364.818329,235.335526 364.972687,244.181244 
	C365.154266,254.587524 360.897217,260.472565 352.851654,260.937653 
	C343.894287,261.455383 339.045044,255.736954 338.969177,244.113327 
M355.380402,258.153595 
	C359.405396,253.019424 360.750702,240.216461 357.315125,235.089844 
	C356.097351,233.272675 353.449677,231.272110 351.558228,231.369278 
	C349.669098,231.466339 346.586792,233.892349 346.334900,235.631546 
	C345.496246,241.421555 345.019348,247.440353 345.693085,253.221191 
	C346.309601,258.511353 349.099487,259.625031 355.380402,258.153595 
z"/>
<path fill="#75CAFC" opacity="1.000000" stroke="none" 
	d="
M313.956177,259.268005 
	C306.670227,253.919083 306.533569,246.763641 308.258270,239.362030 
	C309.529724,233.905777 313.022797,230.122116 318.948120,229.862991 
	C321.643463,229.745117 324.678619,230.124466 327.051758,231.301895 
	C333.638916,234.570129 336.015533,245.911453 332.193298,253.993408 
	C329.179199,260.366577 322.074890,262.532806 313.956177,259.268005 
M317.063324,232.453873 
	C311.427429,239.713608 312.395813,247.649139 315.284973,255.438187 
	C315.921600,257.154388 319.019806,259.008453 320.897278,258.921204 
	C322.819183,258.831940 326.076477,256.589752 326.242279,255.024353 
	C326.906769,248.751419 327.299896,242.275345 326.415619,236.070740 
	C325.767029,231.519684 322.252350,230.509811 317.063324,232.453873 
z"/>
<path fill="#717275" opacity="1.000000" stroke="none" 
	d="
M197.006439,243.930435 
	C197.191269,246.850388 197.045410,249.448990 197.818222,251.737366 
	C200.317673,259.138489 207.229950,260.439392 212.493317,254.689484 
	C212.994492,254.142014 213.502151,253.600449 214.326233,253.381531 
	C213.246124,257.514740 210.409592,259.986176 206.323502,260.691803 
	C201.391769,261.543457 197.078949,260.072296 193.980820,255.936615 
	C189.676300,250.190414 190.092468,239.445480 194.760254,233.952545 
	C198.058441,230.071320 203.689911,228.572327 208.364334,230.484695 
	C213.432495,232.558121 214.686188,236.795242 214.706284,241.870209 
	C208.689743,242.415787 202.893051,242.941422 197.006439,243.930435 
M203.498657,241.107513 
	C205.277969,241.107513 207.057297,241.107513 208.815720,241.107513 
	C208.997070,234.216843 207.021088,230.772461 203.405838,231.034286 
	C199.664688,231.305222 197.177185,235.524521 197.661774,241.107590 
	C199.283432,241.107590 200.932205,241.107590 203.498657,241.107513 
z"/>
<path fill="#7ECEFC" opacity="1.000000" stroke="none" 
	d="
M373.073120,250.815933 
	C373.073151,242.018921 372.999298,233.696884 373.106812,225.377197 
	C373.154053,221.723282 373.448547,218.124741 369.292633,215.988022 
	C372.284973,215.773483 375.277313,215.558929 378.852997,215.302551 
	C378.852997,227.956436 378.728455,240.232376 378.962585,252.501465 
	C379.007141,254.836212 380.470428,257.143860 381.323883,259.592407 
	C378.122864,259.592407 373.871826,259.592407 370.770081,259.592407 
	C371.526215,256.867004 372.299622,254.079437 373.073120,250.815933 
z"/>
<path fill="#6D6D71" opacity="1.000000" stroke="none" 
	d="
M177.468887,246.958084 
	C177.468079,238.977768 177.680832,231.480820 177.352585,224.007660 
	C177.233917,221.306061 175.818741,218.661392 175.012344,216.046402 
	C176.488907,215.952148 179.286514,215.773560 182.882111,215.544022 
	C182.882111,218.147018 182.882080,220.714432 182.882126,223.281845 
	C182.882294,233.098846 182.731628,242.919861 182.993729,252.729858 
	C183.055618,255.045792 184.506638,257.324585 185.328201,259.647522 
	C182.333008,259.647522 178.171936,259.647522 173.403427,259.647522 
	C179.506439,256.922607 176.918549,251.747986 177.468887,246.958084 
z"/>
<path fill="#6D6D71" opacity="1.000000" stroke="none" 
	d="
M253.139923,231.171631 
	C254.160278,230.682068 255.399002,230.379211 256.956451,229.998413 
	C256.956451,227.563660 256.956451,225.110779 256.956451,222.345230 
	C258.718018,221.931122 260.235535,221.574387 262.144897,221.125519 
	C262.350067,224.245758 262.530518,226.990128 262.742249,230.210312 
	C265.113373,230.391129 267.360382,230.562500 269.606293,230.737274 
	C269.463593,230.959717 269.329926,231.364685 269.179321,231.371078 
	C262.455841,231.656464 262.454163,231.652283 262.451050,238.193466 
	C262.448914,242.689301 262.420654,247.185410 262.459351,251.680923 
	C262.518005,258.493530 263.562622,259.315765 270.167969,257.516327 
	C268.666138,260.931427 265.978180,261.199890 263.130188,260.733185 
	C259.482758,260.135498 257.585815,257.533997 257.354553,254.129761 
	C257.005463,248.990387 257.149170,243.817352 257.090393,238.658554 
	C257.071411,236.993652 257.543457,235.116867 256.918152,233.730713 
	C256.421082,232.628830 254.594559,232.126709 253.139923,231.171631 
z"/>
<path fill="#6B6C6F" opacity="1.000000" stroke="none" 
	d="
M235.020142,230.334549 
	C243.138474,229.044952 245.955399,231.236679 246.149399,239.173264 
	C246.263092,243.824356 245.915695,248.503021 246.308548,253.123962 
	C246.497345,255.344559 247.920685,257.460175 248.901001,259.913788 
	C247.936600,259.913788 245.949036,259.913788 243.961487,259.913788 
	C241.971756,259.913788 239.982040,259.913788 238.761856,259.913788 
	C239.490479,257.156158 240.663559,254.368286 240.883713,251.507111 
	C241.239655,246.881287 241.032379,242.206039 240.941544,237.554016 
	C240.877274,234.263123 239.981644,231.537766 235.426468,231.519547 
	C235.027588,230.945068 235.026825,230.639801 235.020142,230.334549 
z"/>
<path fill="#6D6D71" opacity="1.000000" stroke="none" 
	d="
M229.420746,236.220551 
	C229.124634,242.321991 228.626038,248.424515 228.659225,254.524170 
	C228.668854,256.290039 230.204208,258.047577 231.019150,259.764709 
	C227.515320,259.764709 223.525421,259.764709 220.723053,259.764709 
	C221.515320,257.356232 222.828766,254.971405 223.000198,252.507141 
	C223.355453,247.399765 223.296127,242.238846 222.994186,237.124344 
	C222.893021,235.410492 221.536896,233.770737 220.379974,231.741272 
	C220.005554,231.385437 219.998062,230.962006 219.998062,230.962006 
	C222.717102,230.958084 225.436142,230.954163 228.090637,231.749329 
	C228.490982,233.772476 228.955856,234.996506 229.420746,236.220551 
z"/>
<path fill="#6B6C6F" opacity="1.000000" stroke="none" 
	d="
M155.007507,230.154938 
	C164.186691,229.189285 166.902390,231.547501 166.973572,240.639389 
	C167.017609,246.263748 166.981735,251.888718 166.981735,257.722168 
	C168.689865,257.924866 170.012756,258.081848 171.335663,258.238800 
	C171.328873,258.698792 171.322083,259.158783 171.315292,259.618774 
	C168.761459,259.618774 165.612656,260.518158 163.836243,259.343018 
	C162.331238,258.347382 162.223618,254.983536 161.839737,252.612274 
	C161.331314,249.471512 161.156006,246.276794 160.420929,243.053406 
	C160.004333,243.001556 160.056564,242.952133 160.056564,242.952133 
	C163.746887,236.732224 162.016312,231.890869 155.385956,230.744904 
	C154.993347,230.505630 155.007507,230.154938 155.007507,230.154938 
z"/>
<path fill="#2BC37B" opacity="1.000000" stroke="none" 
	d="
M386.949524,261.077698 
	C385.981262,258.610931 384.615082,256.143188 385.027985,254.021698 
	C385.275238,252.751068 388.410980,251.112152 390.053711,251.304199 
	C391.708649,251.497665 393.837341,253.471558 394.499695,255.159332 
	C396.080719,259.188049 392.711273,261.864380 386.949524,261.077698 
z"/>
<path fill="#6B6C6F" opacity="1.000000" stroke="none" 
	d="
M150.924362,253.028564 
	C151.248627,258.677643 155.119019,257.950165 158.718826,257.968842 
	C155.779938,261.408844 151.940933,261.328156 149.119370,259.106415 
	C147.233932,257.621796 145.818893,253.949051 146.173599,251.548065 
	C146.869324,246.838684 151.036484,245.465881 155.228546,244.922653 
	C153.745773,247.579544 152.337234,250.103455 150.924362,253.028564 
z"/>
<path fill="#717275" opacity="1.000000" stroke="none" 
	d="
M154.636642,230.122528 
	C155.007507,230.154938 154.993347,230.505630 154.984177,230.680878 
	C153.938553,231.346863 152.902115,231.837616 151.865662,232.328354 
	C152.280579,232.474609 152.695496,232.620865 153.110428,232.767120 
	C152.616180,234.923950 152.121933,237.080780 151.627701,239.237610 
	C150.218719,238.768188 148.002808,238.693344 147.545670,237.758514 
	C145.898483,234.389847 148.377899,232.608963 151.003311,231.229492 
	C152.011917,230.699539 153.173752,230.461273 154.636642,230.122528 
z"/>
<path fill="#717275" opacity="1.000000" stroke="none" 
	d="
M229.661621,236.016876 
	C228.955856,234.996506 228.490982,233.772476 228.063721,232.117676 
	C228.338501,232.296707 228.575684,232.906494 228.933426,233.826187 
	C230.763550,232.668030 232.559174,231.531693 234.687469,230.364960 
	C235.026825,230.639801 235.027588,230.945068 235.017090,231.479218 
	C233.308670,233.076477 231.605591,234.444839 229.661621,236.016876 
z"/>
<path fill="#FBFDFF" opacity="1.000000" stroke="none" 
	d="
M157.883179,244.272980 
	C157.782196,244.752472 157.640778,245.003983 157.499359,245.255493 
	C157.358383,245.004303 157.052063,244.689713 157.117950,244.517838 
	C157.201584,244.299667 157.587296,244.197296 157.883179,244.272980 
z"/>
<path fill="#FBFDFF" opacity="1.000000" stroke="none" 
	d="
M160.020416,242.969162 
	C159.907837,243.384354 159.779160,243.831955 159.650482,244.279556 
	C159.643784,243.921310 159.637085,243.563080 159.843475,243.078491 
	C160.056564,242.952133 160.004333,243.001556 160.020416,242.969162 
z"/>
<path fill="#717275" opacity="1.000000" stroke="none" 
	d="
M219.741516,230.958679 
	C219.998062,230.962006 220.005554,231.385437 220.006592,231.597153 
	C219.833420,231.524368 219.659195,231.239853 219.741516,230.958679 
z"/>
<path fill="#FBFDFF" opacity="1.000000" stroke="none" 
	d="
M355.058899,258.399933 
	C349.099487,259.625031 346.309601,258.511353 345.693085,253.221191 
	C345.019348,247.440353 345.496246,241.421555 346.334900,235.631546 
	C346.586792,233.892349 349.669098,231.466339 351.558228,231.369278 
	C353.449677,231.272110 356.097351,233.272675 357.315125,235.089844 
	C360.750702,240.216461 359.405396,253.019424 355.058899,258.399933 
z"/>
<path fill="#FBFDFF" opacity="1.000000" stroke="none" 
	d="
M317.385498,232.242004 
	C322.252350,230.509811 325.767029,231.519684 326.415619,236.070740 
	C327.299896,242.275345 326.906769,248.751419 326.242279,255.024353 
	C326.076477,256.589752 322.819183,258.831940 320.897278,258.921204 
	C319.019806,259.008453 315.921600,257.154388 315.284973,255.438187 
	C312.395813,247.649139 311.427429,239.713608 317.385498,232.242004 
z"/>
<path fill="#FBFDFF" opacity="1.000000" stroke="none" 
	d="
M203.039825,241.107544 
	C200.932205,241.107590 199.283432,241.107590 197.661774,241.107590 
	C197.177185,235.524521 199.664688,231.305222 203.405838,231.034286 
	C207.021088,230.772461 208.997070,234.216843 208.815720,241.107513 
	C207.057297,241.107513 205.277969,241.107513 203.039825,241.107544 
z"/>
</svg>